<svg id="visual" viewBox="0 0 900 600" width="900" height="600" xmlns="http://www.w3.org/2000/svg" xmlns:xlink="http://www.w3.org/1999/xlink" version="1.1"><rect x="0" y="0" width="900" height="600" fill="#140021"></rect><path d="M0 274L129 274L129 360L257 360L257 312L386 312L386 320L514 320L514 292L643 292L643 352L771 352L771 272L900 272L900 276L900 601L900 601L771 601L771 601L643 601L643 601L514 601L514 601L386 601L386 601L257 601L257 601L129 601L129 601L0 601Z" fill="#9900ff"></path><path d="M0 436L129 436L129 432L257 432L257 458L386 458L386 401L514 401L514 437L643 437L643 384L771 384L771 405L900 405L900 447L900 601L900 601L771 601L771 601L643 601L643 601L514 601L514 601L386 601L386 601L257 601L257 601L129 601L129 601L0 601Z" fill="#7700c6"></path><path d="M0 500L129 500L129 507L257 507L257 520L386 520L386 492L514 492L514 503L643 503L643 444L771 444L771 545L900 545L900 535L900 601L900 601L771 601L771 601L643 601L643 601L514 601L514 601L386 601L386 601L257 601L257 601L129 601L129 601L0 601Z" fill="#560090"></path></svg>